<?xml version="1.0" standalone="no"?><!DOCTYPE svg PUBLIC "-//W3C//DTD SVG 1.1//EN" "http://www.w3.org/Graphics/SVG/1.1/DTD/svg11.dtd"><svg t="1542887713570" class="icon" style="" viewBox="0 0 1024 1024" version="1.1" xmlns="http://www.w3.org/2000/svg" p-id="1534" xmlns:xlink="http://www.w3.org/1999/xlink" width="200" height="200"><defs><style type="text/css"></style></defs><path d="M660.052114 398.544457a27.428571 27.428571 0 0 0-38.787657 38.791314l63.071086 63.071086a27.428571 27.428571 0 0 0 38.787657 0l163.719314-163.719314a27.428571 27.428571 0 1 0-38.791314-38.787657l-144.321829 144.321828-43.677257-43.677257z" p-id="1535"></path><path d="M755.2 616.228571c132.297143 0 239.542857-107.245714 239.542857-239.542857S887.497143 137.142857 755.2 137.142857s-239.542857 107.245714-239.542857 239.542857 107.245714 239.542857 239.542857 239.542857z m0-54.857142c-101.997714 0-184.685714-82.688-184.685714-184.685715s82.688-184.685714 184.685714-184.685714 184.685714 82.688 184.685714 184.685714-82.688 184.685714-184.685714 184.685715z" p-id="1536"></path><path d="M757.028571 702.208V778.971429c0 104.020114-84.319086 188.342857-188.342857 188.342857H85.946514c-1.013029 0-1.832229-908.767086-1.832228-908.767086 0-1.034971 671.082057-1.861486 671.082057-1.861486a27.428571 27.428571 0 1 0 0-54.857143H85.946514C54.626743 1.828571 29.257143 27.227429 29.257143 58.5472v906.9056c0 31.330743 25.373257 56.718629 56.689371 56.718629h482.742857c134.319543 0 243.196343-108.880457 243.196343-243.2v-76.763429a27.428571 27.428571 0 0 0-54.857143 0z" p-id="1537"></path><path d="M217.6 257.828571h290.742857a27.428571 27.428571 0 1 0 0-54.857142H217.6a27.428571 27.428571 0 0 0 0 54.857142zM217.6 740.571429h290.742857a27.428571 27.428571 0 1 0 0-54.857143H217.6a27.428571 27.428571 0 1 0 0 54.857143zM217.6 418.742857h170.057143a27.428571 27.428571 0 1 0 0-54.857143H217.6a27.428571 27.428571 0 1 0 0 54.857143zM217.6 579.657143h236.741486a27.428571 27.428571 0 1 0 0-54.857143H217.6a27.428571 27.428571 0 1 0 0 54.857143z" p-id="1538"></path></svg>